<mxfile host="app.diagrams.net" modified="2024-04-10T01:18:19.884Z" agent="Mozilla/5.0 (X11; Linux x86_64) AppleWebKit/537.36 (KHTML, like Gecko) Chrome/123.0.0.0 Safari/537.36" etag="TKgO68RHiXPFMHKJUR-e" version="24.2.3" type="device">
  <diagram id="R2lEEEUBdFMjLlhIrx00" name="Page-1">
    <mxGraphModel dx="2799" dy="2184" grid="1" gridSize="10" guides="1" tooltips="1" connect="1" arrows="1" fold="1" page="1" pageScale="1" pageWidth="850" pageHeight="1100" math="0" shadow="0" extFonts="Permanent Marker^https://fonts.googleapis.com/css?family=Permanent+Marker">
      <root>
        <mxCell id="0" />
        <mxCell id="1" parent="0" />
        <mxCell id="C-vyLk0tnHw3VtMMgP7b-23" value="USER" style="shape=table;startSize=30;container=1;collapsible=1;childLayout=tableLayout;fixedRows=1;rowLines=0;fontStyle=1;align=center;resizeLast=1;fillColor=#999999;" parent="1" vertex="1">
          <mxGeometry x="380" y="-120" width="250" height="180" as="geometry">
            <mxRectangle x="375" y="90" width="100" height="30" as="alternateBounds" />
          </mxGeometry>
        </mxCell>
        <mxCell id="C-vyLk0tnHw3VtMMgP7b-24" value="" style="shape=partialRectangle;collapsible=0;dropTarget=0;pointerEvents=0;fillColor=none;points=[[0,0.5],[1,0.5]];portConstraint=eastwest;top=0;left=0;right=0;bottom=1;" parent="C-vyLk0tnHw3VtMMgP7b-23" vertex="1">
          <mxGeometry y="30" width="250" height="30" as="geometry" />
        </mxCell>
        <mxCell id="C-vyLk0tnHw3VtMMgP7b-25" value="PK" style="shape=partialRectangle;overflow=hidden;connectable=0;fillColor=none;top=0;left=0;bottom=0;right=0;fontStyle=1;" parent="C-vyLk0tnHw3VtMMgP7b-24" vertex="1">
          <mxGeometry width="30" height="30" as="geometry">
            <mxRectangle width="30" height="30" as="alternateBounds" />
          </mxGeometry>
        </mxCell>
        <mxCell id="C-vyLk0tnHw3VtMMgP7b-26" value="email" style="shape=partialRectangle;overflow=hidden;connectable=0;fillColor=none;top=0;left=0;bottom=0;right=0;align=left;spacingLeft=6;fontStyle=5;" parent="C-vyLk0tnHw3VtMMgP7b-24" vertex="1">
          <mxGeometry x="30" width="220" height="30" as="geometry">
            <mxRectangle width="220" height="30" as="alternateBounds" />
          </mxGeometry>
        </mxCell>
        <mxCell id="C-vyLk0tnHw3VtMMgP7b-27" value="" style="shape=partialRectangle;collapsible=0;dropTarget=0;pointerEvents=0;fillColor=none;points=[[0,0.5],[1,0.5]];portConstraint=eastwest;top=0;left=0;right=0;bottom=0;" parent="C-vyLk0tnHw3VtMMgP7b-23" vertex="1">
          <mxGeometry y="60" width="250" height="120" as="geometry" />
        </mxCell>
        <mxCell id="C-vyLk0tnHw3VtMMgP7b-28" value="" style="shape=partialRectangle;overflow=hidden;connectable=0;fillColor=none;top=0;left=0;bottom=0;right=0;" parent="C-vyLk0tnHw3VtMMgP7b-27" vertex="1">
          <mxGeometry width="30" height="120" as="geometry">
            <mxRectangle width="30" height="120" as="alternateBounds" />
          </mxGeometry>
        </mxCell>
        <mxCell id="C-vyLk0tnHw3VtMMgP7b-29" value="name &#xa;last_name&#xa;password&#xa;phone_number&#xa;birth_date&#xa;nationality&#xa;marketing _consent" style="shape=partialRectangle;overflow=hidden;connectable=0;fillColor=none;top=0;left=0;bottom=0;right=0;align=left;spacingLeft=6;verticalAlign=top;" parent="C-vyLk0tnHw3VtMMgP7b-27" vertex="1">
          <mxGeometry x="30" width="220" height="120" as="geometry">
            <mxRectangle width="220" height="120" as="alternateBounds" />
          </mxGeometry>
        </mxCell>
        <mxCell id="y83t3_RC7K6JL3BlZnbY-36" value="ROOM" style="shape=table;startSize=30;container=1;collapsible=1;childLayout=tableLayout;fixedRows=1;rowLines=0;fontStyle=1;align=center;resizeLast=1;fillColor=#999999;" parent="1" vertex="1">
          <mxGeometry x="-30" y="-260" width="250" height="180" as="geometry">
            <mxRectangle x="-25" y="-130" width="100" height="30" as="alternateBounds" />
          </mxGeometry>
        </mxCell>
        <mxCell id="y83t3_RC7K6JL3BlZnbY-37" value="" style="shape=partialRectangle;collapsible=0;dropTarget=0;pointerEvents=0;fillColor=none;points=[[0,0.5],[1,0.5]];portConstraint=eastwest;top=0;left=0;right=0;bottom=1;" parent="y83t3_RC7K6JL3BlZnbY-36" vertex="1">
          <mxGeometry y="30" width="250" height="30" as="geometry" />
        </mxCell>
        <mxCell id="y83t3_RC7K6JL3BlZnbY-38" value="PK" style="shape=partialRectangle;overflow=hidden;connectable=0;fillColor=none;top=0;left=0;bottom=0;right=0;fontStyle=1;" parent="y83t3_RC7K6JL3BlZnbY-37" vertex="1">
          <mxGeometry width="30" height="30" as="geometry">
            <mxRectangle width="30" height="30" as="alternateBounds" />
          </mxGeometry>
        </mxCell>
        <mxCell id="y83t3_RC7K6JL3BlZnbY-39" value="room_id" style="shape=partialRectangle;overflow=hidden;connectable=0;fillColor=none;top=0;left=0;bottom=0;right=0;align=left;spacingLeft=6;fontStyle=5;" parent="y83t3_RC7K6JL3BlZnbY-37" vertex="1">
          <mxGeometry x="30" width="220" height="30" as="geometry">
            <mxRectangle width="220" height="30" as="alternateBounds" />
          </mxGeometry>
        </mxCell>
        <mxCell id="y83t3_RC7K6JL3BlZnbY-40" value="" style="shape=partialRectangle;collapsible=0;dropTarget=0;pointerEvents=0;fillColor=none;points=[[0,0.5],[1,0.5]];portConstraint=eastwest;top=0;left=0;right=0;bottom=0;" parent="y83t3_RC7K6JL3BlZnbY-36" vertex="1">
          <mxGeometry y="60" width="250" height="120" as="geometry" />
        </mxCell>
        <mxCell id="y83t3_RC7K6JL3BlZnbY-41" value="" style="shape=partialRectangle;overflow=hidden;connectable=0;fillColor=none;top=0;left=0;bottom=0;right=0;" parent="y83t3_RC7K6JL3BlZnbY-40" vertex="1">
          <mxGeometry width="30" height="120" as="geometry">
            <mxRectangle width="30" height="120" as="alternateBounds" />
          </mxGeometry>
        </mxCell>
        <mxCell id="y83t3_RC7K6JL3BlZnbY-42" value="room_price&#xa;room_type&#xa;price_per_night&#xa;availability&#xa;capacity&#xa;description&#xa;" style="shape=partialRectangle;overflow=hidden;connectable=0;fillColor=none;top=0;left=0;bottom=0;right=0;align=left;spacingLeft=6;verticalAlign=top;" parent="y83t3_RC7K6JL3BlZnbY-40" vertex="1">
          <mxGeometry x="30" width="220" height="120" as="geometry">
            <mxRectangle width="220" height="120" as="alternateBounds" />
          </mxGeometry>
        </mxCell>
        <mxCell id="DCqz6rwjNSf6AzqSDJ03-41" style="edgeStyle=orthogonalEdgeStyle;rounded=0;orthogonalLoop=1;jettySize=auto;html=1;exitX=0;exitY=0.5;exitDx=0;exitDy=0;entryX=1;entryY=0.5;entryDx=0;entryDy=0;endArrow=none;endFill=0;" parent="1" source="y83t3_RC7K6JL3BlZnbY-43" target="DCqz6rwjNSf6AzqSDJ03-39" edge="1">
          <mxGeometry relative="1" as="geometry" />
        </mxCell>
        <mxCell id="HNg9jCC4lnhHoj9bdT9w-36" value="1" style="edgeLabel;html=1;align=center;verticalAlign=middle;resizable=0;points=[];fontSize=12;" parent="DCqz6rwjNSf6AzqSDJ03-41" vertex="1" connectable="0">
          <mxGeometry x="-0.4667" y="-1" relative="1" as="geometry">
            <mxPoint y="1" as="offset" />
          </mxGeometry>
        </mxCell>
        <mxCell id="y83t3_RC7K6JL3BlZnbY-43" value="ROLE" style="shape=table;startSize=30;container=1;collapsible=1;childLayout=tableLayout;fixedRows=1;rowLines=0;fontStyle=1;align=center;resizeLast=1;fillColor=#999999;" parent="1" vertex="1">
          <mxGeometry x="860" y="-107.5" width="250" height="180" as="geometry">
            <mxRectangle x="630" y="92.5" width="100" height="30" as="alternateBounds" />
          </mxGeometry>
        </mxCell>
        <mxCell id="y83t3_RC7K6JL3BlZnbY-44" value="" style="shape=partialRectangle;collapsible=0;dropTarget=0;pointerEvents=0;fillColor=none;points=[[0,0.5],[1,0.5]];portConstraint=eastwest;top=0;left=0;right=0;bottom=1;" parent="y83t3_RC7K6JL3BlZnbY-43" vertex="1">
          <mxGeometry y="30" width="250" height="30" as="geometry" />
        </mxCell>
        <mxCell id="y83t3_RC7K6JL3BlZnbY-45" value="PK" style="shape=partialRectangle;overflow=hidden;connectable=0;fillColor=none;top=0;left=0;bottom=0;right=0;fontStyle=1;" parent="y83t3_RC7K6JL3BlZnbY-44" vertex="1">
          <mxGeometry width="30" height="30" as="geometry">
            <mxRectangle width="30" height="30" as="alternateBounds" />
          </mxGeometry>
        </mxCell>
        <mxCell id="y83t3_RC7K6JL3BlZnbY-46" value="id_role" style="shape=partialRectangle;overflow=hidden;connectable=0;fillColor=none;top=0;left=0;bottom=0;right=0;align=left;spacingLeft=6;fontStyle=5;" parent="y83t3_RC7K6JL3BlZnbY-44" vertex="1">
          <mxGeometry x="30" width="220" height="30" as="geometry">
            <mxRectangle width="220" height="30" as="alternateBounds" />
          </mxGeometry>
        </mxCell>
        <mxCell id="y83t3_RC7K6JL3BlZnbY-47" value="" style="shape=partialRectangle;collapsible=0;dropTarget=0;pointerEvents=0;fillColor=none;points=[[0,0.5],[1,0.5]];portConstraint=eastwest;top=0;left=0;right=0;bottom=0;verticalAlign=top;" parent="y83t3_RC7K6JL3BlZnbY-43" vertex="1">
          <mxGeometry y="60" width="250" height="120" as="geometry" />
        </mxCell>
        <mxCell id="y83t3_RC7K6JL3BlZnbY-48" value="FK" style="shape=partialRectangle;overflow=hidden;connectable=0;fillColor=none;top=0;left=0;bottom=0;right=0;verticalAlign=top;" parent="y83t3_RC7K6JL3BlZnbY-47" vertex="1">
          <mxGeometry width="30" height="120" as="geometry">
            <mxRectangle width="30" height="120" as="alternateBounds" />
          </mxGeometry>
        </mxCell>
        <mxCell id="y83t3_RC7K6JL3BlZnbY-49" value="id_user&#xa;role" style="shape=partialRectangle;overflow=hidden;connectable=0;fillColor=none;top=0;left=0;bottom=0;right=0;align=left;spacingLeft=6;verticalAlign=top;" parent="y83t3_RC7K6JL3BlZnbY-47" vertex="1">
          <mxGeometry x="30" width="220" height="120" as="geometry">
            <mxRectangle width="220" height="120" as="alternateBounds" />
          </mxGeometry>
        </mxCell>
        <mxCell id="DCqz6rwjNSf6AzqSDJ03-37" style="edgeStyle=orthogonalEdgeStyle;rounded=0;orthogonalLoop=1;jettySize=auto;html=1;exitX=0.5;exitY=0;exitDx=0;exitDy=0;entryX=0.5;entryY=1;entryDx=0;entryDy=0;endArrow=none;endFill=0;" parent="1" source="DCqz6rwjNSf6AzqSDJ03-1" target="DCqz6rwjNSf6AzqSDJ03-36" edge="1">
          <mxGeometry relative="1" as="geometry" />
        </mxCell>
        <mxCell id="HNg9jCC4lnhHoj9bdT9w-35" value="1" style="edgeLabel;html=1;align=center;verticalAlign=middle;resizable=0;points=[];fontSize=12;" parent="DCqz6rwjNSf6AzqSDJ03-37" vertex="1" connectable="0">
          <mxGeometry x="-0.1524" y="1" relative="1" as="geometry">
            <mxPoint as="offset" />
          </mxGeometry>
        </mxCell>
        <mxCell id="DCqz6rwjNSf6AzqSDJ03-1" value="PAYMENT" style="shape=table;startSize=30;container=1;collapsible=1;childLayout=tableLayout;fixedRows=1;rowLines=0;fontStyle=1;align=center;resizeLast=1;fillColor=#999999;" parent="1" vertex="1">
          <mxGeometry x="560" y="227.5" width="250" height="180" as="geometry">
            <mxRectangle x="375" y="220" width="100" height="30" as="alternateBounds" />
          </mxGeometry>
        </mxCell>
        <mxCell id="DCqz6rwjNSf6AzqSDJ03-2" value="" style="shape=partialRectangle;collapsible=0;dropTarget=0;pointerEvents=0;fillColor=none;points=[[0,0.5],[1,0.5]];portConstraint=eastwest;top=0;left=0;right=0;bottom=1;" parent="DCqz6rwjNSf6AzqSDJ03-1" vertex="1">
          <mxGeometry y="30" width="250" height="30" as="geometry" />
        </mxCell>
        <mxCell id="DCqz6rwjNSf6AzqSDJ03-3" value="PK" style="shape=partialRectangle;overflow=hidden;connectable=0;fillColor=none;top=0;left=0;bottom=0;right=0;fontStyle=1;" parent="DCqz6rwjNSf6AzqSDJ03-2" vertex="1">
          <mxGeometry width="30" height="30" as="geometry">
            <mxRectangle width="30" height="30" as="alternateBounds" />
          </mxGeometry>
        </mxCell>
        <mxCell id="DCqz6rwjNSf6AzqSDJ03-4" value="id_payment" style="shape=partialRectangle;overflow=hidden;connectable=0;fillColor=none;top=0;left=0;bottom=0;right=0;align=left;spacingLeft=6;fontStyle=5;" parent="DCqz6rwjNSf6AzqSDJ03-2" vertex="1">
          <mxGeometry x="30" width="220" height="30" as="geometry">
            <mxRectangle width="220" height="30" as="alternateBounds" />
          </mxGeometry>
        </mxCell>
        <mxCell id="DCqz6rwjNSf6AzqSDJ03-5" value="" style="shape=partialRectangle;collapsible=0;dropTarget=0;pointerEvents=0;fillColor=none;points=[[0,0.5],[1,0.5]];portConstraint=eastwest;top=0;left=0;right=0;bottom=0;verticalAlign=top;" parent="DCqz6rwjNSf6AzqSDJ03-1" vertex="1">
          <mxGeometry y="60" width="250" height="120" as="geometry" />
        </mxCell>
        <mxCell id="DCqz6rwjNSf6AzqSDJ03-6" value="&#xa;FK" style="shape=partialRectangle;overflow=hidden;connectable=0;fillColor=none;top=0;left=0;bottom=0;right=0;verticalAlign=top;" parent="DCqz6rwjNSf6AzqSDJ03-5" vertex="1">
          <mxGeometry width="30" height="120" as="geometry">
            <mxRectangle width="30" height="120" as="alternateBounds" />
          </mxGeometry>
        </mxCell>
        <mxCell id="DCqz6rwjNSf6AzqSDJ03-7" value="type&#xa;id_user&#xa;&#xa;" style="shape=partialRectangle;overflow=hidden;connectable=0;fillColor=none;top=0;left=0;bottom=0;right=0;align=left;spacingLeft=6;verticalAlign=top;" parent="DCqz6rwjNSf6AzqSDJ03-5" vertex="1">
          <mxGeometry x="30" width="220" height="120" as="geometry">
            <mxRectangle width="220" height="120" as="alternateBounds" />
          </mxGeometry>
        </mxCell>
        <mxCell id="DCqz6rwjNSf6AzqSDJ03-15" value="RESERVE" style="shape=table;startSize=30;container=1;collapsible=1;childLayout=tableLayout;fixedRows=1;rowLines=0;fontStyle=1;align=center;resizeLast=1;fillColor=#999999;" parent="1" vertex="1">
          <mxGeometry x="-30" y="17.5" width="250" height="180" as="geometry">
            <mxRectangle x="-30" y="7.5" width="100" height="30" as="alternateBounds" />
          </mxGeometry>
        </mxCell>
        <mxCell id="DCqz6rwjNSf6AzqSDJ03-16" value="" style="shape=partialRectangle;collapsible=0;dropTarget=0;pointerEvents=0;fillColor=none;points=[[0,0.5],[1,0.5]];portConstraint=eastwest;top=0;left=0;right=0;bottom=1;" parent="DCqz6rwjNSf6AzqSDJ03-15" vertex="1">
          <mxGeometry y="30" width="250" height="30" as="geometry" />
        </mxCell>
        <mxCell id="DCqz6rwjNSf6AzqSDJ03-17" value="PK" style="shape=partialRectangle;overflow=hidden;connectable=0;fillColor=none;top=0;left=0;bottom=0;right=0;fontStyle=1;" parent="DCqz6rwjNSf6AzqSDJ03-16" vertex="1">
          <mxGeometry width="30" height="30" as="geometry">
            <mxRectangle width="30" height="30" as="alternateBounds" />
          </mxGeometry>
        </mxCell>
        <mxCell id="DCqz6rwjNSf6AzqSDJ03-18" value="reserve_id" style="shape=partialRectangle;overflow=hidden;connectable=0;fillColor=none;top=0;left=0;bottom=0;right=0;align=left;spacingLeft=6;fontStyle=5;" parent="DCqz6rwjNSf6AzqSDJ03-16" vertex="1">
          <mxGeometry x="30" width="220" height="30" as="geometry">
            <mxRectangle width="220" height="30" as="alternateBounds" />
          </mxGeometry>
        </mxCell>
        <mxCell id="DCqz6rwjNSf6AzqSDJ03-19" value="" style="shape=partialRectangle;collapsible=0;dropTarget=0;pointerEvents=0;fillColor=none;points=[[0,0.5],[1,0.5]];portConstraint=eastwest;top=0;left=0;right=0;bottom=0;" parent="DCqz6rwjNSf6AzqSDJ03-15" vertex="1">
          <mxGeometry y="60" width="250" height="120" as="geometry" />
        </mxCell>
        <mxCell id="DCqz6rwjNSf6AzqSDJ03-20" value="&#xa;&#xa;&#xa;FK&#xa;" style="shape=partialRectangle;overflow=hidden;connectable=0;fillColor=none;top=0;left=0;bottom=0;right=0;verticalAlign=top;" parent="DCqz6rwjNSf6AzqSDJ03-19" vertex="1">
          <mxGeometry width="30" height="120" as="geometry">
            <mxRectangle width="30" height="120" as="alternateBounds" />
          </mxGeometry>
        </mxCell>
        <mxCell id="DCqz6rwjNSf6AzqSDJ03-21" value="arrival_date&#xa;departure_date&#xa;reserve_status&#xa;user_id" style="shape=partialRectangle;overflow=hidden;connectable=0;fillColor=none;top=0;left=0;bottom=0;right=0;align=left;spacingLeft=6;verticalAlign=top;" parent="DCqz6rwjNSf6AzqSDJ03-19" vertex="1">
          <mxGeometry x="30" width="220" height="120" as="geometry">
            <mxRectangle width="220" height="120" as="alternateBounds" />
          </mxGeometry>
        </mxCell>
        <mxCell id="DCqz6rwjNSf6AzqSDJ03-57" style="edgeStyle=orthogonalEdgeStyle;rounded=0;orthogonalLoop=1;jettySize=auto;html=1;exitX=0.5;exitY=0;exitDx=0;exitDy=0;entryX=0.5;entryY=1;entryDx=0;entryDy=0;endArrow=none;endFill=0;" parent="1" source="DCqz6rwjNSf6AzqSDJ03-22" target="DCqz6rwjNSf6AzqSDJ03-55" edge="1">
          <mxGeometry relative="1" as="geometry">
            <mxPoint x="30" y="270" as="targetPoint" />
          </mxGeometry>
        </mxCell>
        <mxCell id="HNg9jCC4lnhHoj9bdT9w-30" value="1" style="edgeLabel;html=1;align=center;verticalAlign=middle;resizable=0;points=[];fontSize=12;" parent="DCqz6rwjNSf6AzqSDJ03-57" vertex="1" connectable="0">
          <mxGeometry x="-0.2" y="1" relative="1" as="geometry">
            <mxPoint x="1" y="-6" as="offset" />
          </mxGeometry>
        </mxCell>
        <mxCell id="DCqz6rwjNSf6AzqSDJ03-22" value="INVOICE" style="shape=table;startSize=30;container=1;collapsible=1;childLayout=tableLayout;fixedRows=1;rowLines=0;fontStyle=1;align=center;resizeLast=1;fillColor=#999999;" parent="1" vertex="1">
          <mxGeometry x="-400" y="200" width="250" height="180" as="geometry">
            <mxRectangle x="-290" y="360" width="100" height="30" as="alternateBounds" />
          </mxGeometry>
        </mxCell>
        <mxCell id="DCqz6rwjNSf6AzqSDJ03-23" value="" style="shape=partialRectangle;collapsible=0;dropTarget=0;pointerEvents=0;fillColor=none;points=[[0,0.5],[1,0.5]];portConstraint=eastwest;top=0;left=0;right=0;bottom=1;" parent="DCqz6rwjNSf6AzqSDJ03-22" vertex="1">
          <mxGeometry y="30" width="250" height="30" as="geometry" />
        </mxCell>
        <mxCell id="DCqz6rwjNSf6AzqSDJ03-24" value="PK" style="shape=partialRectangle;overflow=hidden;connectable=0;fillColor=none;top=0;left=0;bottom=0;right=0;fontStyle=1;" parent="DCqz6rwjNSf6AzqSDJ03-23" vertex="1">
          <mxGeometry width="30" height="30" as="geometry">
            <mxRectangle width="30" height="30" as="alternateBounds" />
          </mxGeometry>
        </mxCell>
        <mxCell id="DCqz6rwjNSf6AzqSDJ03-25" value="invoice_id" style="shape=partialRectangle;overflow=hidden;connectable=0;fillColor=none;top=0;left=0;bottom=0;right=0;align=left;spacingLeft=6;fontStyle=5;" parent="DCqz6rwjNSf6AzqSDJ03-23" vertex="1">
          <mxGeometry x="30" width="220" height="30" as="geometry">
            <mxRectangle width="220" height="30" as="alternateBounds" />
          </mxGeometry>
        </mxCell>
        <mxCell id="DCqz6rwjNSf6AzqSDJ03-26" value="" style="shape=partialRectangle;collapsible=0;dropTarget=0;pointerEvents=0;fillColor=none;points=[[0,0.5],[1,0.5]];portConstraint=eastwest;top=0;left=0;right=0;bottom=0;" parent="DCqz6rwjNSf6AzqSDJ03-22" vertex="1">
          <mxGeometry y="60" width="250" height="120" as="geometry" />
        </mxCell>
        <mxCell id="DCqz6rwjNSf6AzqSDJ03-27" value="&#xa;&#xa;&#xa;FK&#xa;FK" style="shape=partialRectangle;overflow=hidden;connectable=0;fillColor=none;top=0;left=0;bottom=0;right=0;verticalAlign=top;" parent="DCqz6rwjNSf6AzqSDJ03-26" vertex="1">
          <mxGeometry width="30" height="120" as="geometry">
            <mxRectangle width="30" height="120" as="alternateBounds" />
          </mxGeometry>
        </mxCell>
        <mxCell id="DCqz6rwjNSf6AzqSDJ03-28" value="issue_date&#xa;total_amount&#xa;payment_status&#xa;user_id&#xa;reserve_id" style="shape=partialRectangle;overflow=hidden;connectable=0;fillColor=none;top=0;left=0;bottom=0;right=0;align=left;spacingLeft=6;verticalAlign=top;" parent="DCqz6rwjNSf6AzqSDJ03-26" vertex="1">
          <mxGeometry x="30" width="220" height="120" as="geometry">
            <mxRectangle width="220" height="120" as="alternateBounds" />
          </mxGeometry>
        </mxCell>
        <mxCell id="DCqz6rwjNSf6AzqSDJ03-29" value="SERVICE" style="shape=table;startSize=30;container=1;collapsible=1;childLayout=tableLayout;fixedRows=1;rowLines=0;fontStyle=1;align=center;resizeLast=1;fillColor=#999999;" parent="1" vertex="1">
          <mxGeometry x="-30" y="480" width="250" height="130" as="geometry">
            <mxRectangle x="120" y="440" width="100" height="30" as="alternateBounds" />
          </mxGeometry>
        </mxCell>
        <mxCell id="DCqz6rwjNSf6AzqSDJ03-30" value="" style="shape=partialRectangle;collapsible=0;dropTarget=0;pointerEvents=0;fillColor=none;points=[[0,0.5],[1,0.5]];portConstraint=eastwest;top=0;left=0;right=0;bottom=1;" parent="DCqz6rwjNSf6AzqSDJ03-29" vertex="1">
          <mxGeometry y="30" width="250" height="30" as="geometry" />
        </mxCell>
        <mxCell id="DCqz6rwjNSf6AzqSDJ03-31" value="PK" style="shape=partialRectangle;overflow=hidden;connectable=0;fillColor=none;top=0;left=0;bottom=0;right=0;fontStyle=1;" parent="DCqz6rwjNSf6AzqSDJ03-30" vertex="1">
          <mxGeometry width="30" height="30" as="geometry">
            <mxRectangle width="30" height="30" as="alternateBounds" />
          </mxGeometry>
        </mxCell>
        <mxCell id="DCqz6rwjNSf6AzqSDJ03-32" value="service_id" style="shape=partialRectangle;overflow=hidden;connectable=0;fillColor=none;top=0;left=0;bottom=0;right=0;align=left;spacingLeft=6;fontStyle=5;" parent="DCqz6rwjNSf6AzqSDJ03-30" vertex="1">
          <mxGeometry x="30" width="220" height="30" as="geometry">
            <mxRectangle width="220" height="30" as="alternateBounds" />
          </mxGeometry>
        </mxCell>
        <mxCell id="DCqz6rwjNSf6AzqSDJ03-33" value="" style="shape=partialRectangle;collapsible=0;dropTarget=0;pointerEvents=0;fillColor=none;points=[[0,0.5],[1,0.5]];portConstraint=eastwest;top=0;left=0;right=0;bottom=0;" parent="DCqz6rwjNSf6AzqSDJ03-29" vertex="1">
          <mxGeometry y="60" width="250" height="70" as="geometry" />
        </mxCell>
        <mxCell id="DCqz6rwjNSf6AzqSDJ03-34" value="" style="shape=partialRectangle;overflow=hidden;connectable=0;fillColor=none;top=0;left=0;bottom=0;right=0;" parent="DCqz6rwjNSf6AzqSDJ03-33" vertex="1">
          <mxGeometry width="30" height="70" as="geometry">
            <mxRectangle width="30" height="70" as="alternateBounds" />
          </mxGeometry>
        </mxCell>
        <mxCell id="DCqz6rwjNSf6AzqSDJ03-35" value="description&#xa;service_price&#xa;availability" style="shape=partialRectangle;overflow=hidden;connectable=0;fillColor=none;top=0;left=0;bottom=0;right=0;align=left;spacingLeft=6;verticalAlign=top;" parent="DCqz6rwjNSf6AzqSDJ03-33" vertex="1">
          <mxGeometry x="30" width="220" height="70" as="geometry">
            <mxRectangle width="220" height="70" as="alternateBounds" />
          </mxGeometry>
        </mxCell>
        <mxCell id="DCqz6rwjNSf6AzqSDJ03-38" style="edgeStyle=orthogonalEdgeStyle;rounded=0;orthogonalLoop=1;jettySize=auto;html=1;exitX=0.5;exitY=0;exitDx=0;exitDy=0;endArrow=none;endFill=0;" parent="1" source="DCqz6rwjNSf6AzqSDJ03-36" target="C-vyLk0tnHw3VtMMgP7b-23" edge="1">
          <mxGeometry relative="1" as="geometry" />
        </mxCell>
        <mxCell id="HNg9jCC4lnhHoj9bdT9w-34" value="1" style="edgeLabel;html=1;align=center;verticalAlign=middle;resizable=0;points=[];fontSize=12;" parent="DCqz6rwjNSf6AzqSDJ03-38" vertex="1" connectable="0">
          <mxGeometry x="0.2933" y="2" relative="1" as="geometry">
            <mxPoint x="2" as="offset" />
          </mxGeometry>
        </mxCell>
        <mxCell id="DCqz6rwjNSf6AzqSDJ03-36" value="has" style="shape=rhombus;double=1;perimeter=rhombusPerimeter;whiteSpace=wrap;html=1;align=center;" parent="1" vertex="1">
          <mxGeometry x="650" y="140" width="70" height="35" as="geometry" />
        </mxCell>
        <mxCell id="DCqz6rwjNSf6AzqSDJ03-39" value="has" style="shape=rhombus;double=1;perimeter=rhombusPerimeter;whiteSpace=wrap;html=1;align=center;" parent="1" vertex="1">
          <mxGeometry x="710" y="-35" width="70" height="35" as="geometry" />
        </mxCell>
        <mxCell id="DCqz6rwjNSf6AzqSDJ03-47" style="edgeStyle=orthogonalEdgeStyle;rounded=0;orthogonalLoop=1;jettySize=auto;html=1;entryX=1.009;entryY=0.563;entryDx=0;entryDy=0;entryPerimeter=0;endArrow=none;endFill=0;" parent="1" source="DCqz6rwjNSf6AzqSDJ03-39" target="C-vyLk0tnHw3VtMMgP7b-23" edge="1">
          <mxGeometry relative="1" as="geometry" />
        </mxCell>
        <mxCell id="HNg9jCC4lnhHoj9bdT9w-38" value="N" style="edgeLabel;html=1;align=center;verticalAlign=middle;resizable=0;points=[];fontSize=12;" parent="DCqz6rwjNSf6AzqSDJ03-47" vertex="1" connectable="0">
          <mxGeometry x="-0.0581" y="2" relative="1" as="geometry">
            <mxPoint y="-2" as="offset" />
          </mxGeometry>
        </mxCell>
        <mxCell id="DCqz6rwjNSf6AzqSDJ03-48" value="do" style="shape=rhombus;perimeter=rhombusPerimeter;whiteSpace=wrap;html=1;align=center;" parent="1" vertex="1">
          <mxGeometry x="250" y="90" width="70" height="35" as="geometry" />
        </mxCell>
        <mxCell id="DCqz6rwjNSf6AzqSDJ03-50" style="edgeStyle=orthogonalEdgeStyle;rounded=0;orthogonalLoop=1;jettySize=auto;html=1;exitX=1;exitY=0.5;exitDx=0;exitDy=0;entryX=0;entryY=0.581;entryDx=0;entryDy=0;entryPerimeter=0;endArrow=none;endFill=0;" parent="1" source="DCqz6rwjNSf6AzqSDJ03-48" target="C-vyLk0tnHw3VtMMgP7b-23" edge="1">
          <mxGeometry relative="1" as="geometry" />
        </mxCell>
        <mxCell id="DCqz6rwjNSf6AzqSDJ03-55" value="makes" style="shape=rhombus;double=1;perimeter=rhombusPerimeter;whiteSpace=wrap;html=1;align=center;" parent="1" vertex="1">
          <mxGeometry x="-310" y="100" width="70" height="35" as="geometry" />
        </mxCell>
        <mxCell id="RLh3w4Q663tFXLtOsCYR-3" style="edgeStyle=orthogonalEdgeStyle;rounded=0;orthogonalLoop=1;jettySize=auto;html=1;entryX=-0.007;entryY=0.368;entryDx=0;entryDy=0;entryPerimeter=0;endArrow=none;endFill=0;" edge="1" parent="1" source="6aJy4sqh1_ycQQzWGgB1-12" target="DCqz6rwjNSf6AzqSDJ03-19">
          <mxGeometry relative="1" as="geometry">
            <Array as="points">
              <mxPoint x="-280" y="70" />
              <mxPoint x="-60" y="70" />
              <mxPoint x="-60" y="122" />
            </Array>
          </mxGeometry>
        </mxCell>
        <mxCell id="6aJy4sqh1_ycQQzWGgB1-12" value="RESERVExROOM" style="shape=table;startSize=30;container=1;collapsible=1;childLayout=tableLayout;fixedRows=1;rowLines=0;fontStyle=1;align=center;resizeLast=1;fillColor=#999999;" parent="1" vertex="1">
          <mxGeometry x="-400" y="-112.5" width="250" height="130" as="geometry">
            <mxRectangle x="-235" y="-52.5" width="140" height="30" as="alternateBounds" />
          </mxGeometry>
        </mxCell>
        <mxCell id="6aJy4sqh1_ycQQzWGgB1-13" value="" style="shape=partialRectangle;collapsible=0;dropTarget=0;pointerEvents=0;fillColor=none;points=[[0,0.5],[1,0.5]];portConstraint=eastwest;top=0;left=0;right=0;bottom=1;" parent="6aJy4sqh1_ycQQzWGgB1-12" vertex="1">
          <mxGeometry y="30" width="250" height="30" as="geometry" />
        </mxCell>
        <mxCell id="6aJy4sqh1_ycQQzWGgB1-14" value="PK" style="shape=partialRectangle;overflow=hidden;connectable=0;fillColor=none;top=0;left=0;bottom=0;right=0;fontStyle=1;" parent="6aJy4sqh1_ycQQzWGgB1-13" vertex="1">
          <mxGeometry width="30" height="30" as="geometry">
            <mxRectangle width="30" height="30" as="alternateBounds" />
          </mxGeometry>
        </mxCell>
        <mxCell id="6aJy4sqh1_ycQQzWGgB1-15" value="reserve_room_id" style="shape=partialRectangle;overflow=hidden;connectable=0;fillColor=none;top=0;left=0;bottom=0;right=0;align=left;spacingLeft=6;fontStyle=5;" parent="6aJy4sqh1_ycQQzWGgB1-13" vertex="1">
          <mxGeometry x="30" width="220" height="30" as="geometry">
            <mxRectangle width="220" height="30" as="alternateBounds" />
          </mxGeometry>
        </mxCell>
        <mxCell id="6aJy4sqh1_ycQQzWGgB1-16" value="" style="shape=partialRectangle;collapsible=0;dropTarget=0;pointerEvents=0;fillColor=none;points=[[0,0.5],[1,0.5]];portConstraint=eastwest;top=0;left=0;right=0;bottom=0;" parent="6aJy4sqh1_ycQQzWGgB1-12" vertex="1">
          <mxGeometry y="60" width="250" height="70" as="geometry" />
        </mxCell>
        <mxCell id="6aJy4sqh1_ycQQzWGgB1-17" value="FK&#xa;FK" style="shape=partialRectangle;overflow=hidden;connectable=0;fillColor=none;top=0;left=0;bottom=0;right=0;verticalAlign=top;" parent="6aJy4sqh1_ycQQzWGgB1-16" vertex="1">
          <mxGeometry width="30" height="70" as="geometry">
            <mxRectangle width="30" height="70" as="alternateBounds" />
          </mxGeometry>
        </mxCell>
        <mxCell id="6aJy4sqh1_ycQQzWGgB1-18" value="reserve_id&#xa;room_id" style="shape=partialRectangle;overflow=hidden;connectable=0;fillColor=none;top=0;left=0;bottom=0;right=0;align=left;spacingLeft=6;verticalAlign=top;" parent="6aJy4sqh1_ycQQzWGgB1-16" vertex="1">
          <mxGeometry x="30" width="220" height="70" as="geometry">
            <mxRectangle width="220" height="70" as="alternateBounds" />
          </mxGeometry>
        </mxCell>
        <mxCell id="HNg9jCC4lnhHoj9bdT9w-5" value="DEB/CREDIT&#xa;CARD" style="shape=table;startSize=30;container=1;collapsible=1;childLayout=tableLayout;fixedRows=1;rowLines=0;fontStyle=1;align=center;resizeLast=1;fillColor=#999999;" parent="1" vertex="1">
          <mxGeometry x="410" y="470" width="250" height="180" as="geometry">
            <mxRectangle x="290" y="332.5" width="100" height="30" as="alternateBounds" />
          </mxGeometry>
        </mxCell>
        <mxCell id="HNg9jCC4lnhHoj9bdT9w-6" value="" style="shape=partialRectangle;collapsible=0;dropTarget=0;pointerEvents=0;fillColor=none;points=[[0,0.5],[1,0.5]];portConstraint=eastwest;top=0;left=0;right=0;bottom=1;" parent="HNg9jCC4lnhHoj9bdT9w-5" vertex="1">
          <mxGeometry y="30" width="250" height="30" as="geometry" />
        </mxCell>
        <mxCell id="HNg9jCC4lnhHoj9bdT9w-7" value="PK" style="shape=partialRectangle;overflow=hidden;connectable=0;fillColor=none;top=0;left=0;bottom=0;right=0;fontStyle=1;" parent="HNg9jCC4lnhHoj9bdT9w-6" vertex="1">
          <mxGeometry width="30" height="30" as="geometry">
            <mxRectangle width="30" height="30" as="alternateBounds" />
          </mxGeometry>
        </mxCell>
        <mxCell id="HNg9jCC4lnhHoj9bdT9w-8" value="id_card" style="shape=partialRectangle;overflow=hidden;connectable=0;fillColor=none;top=0;left=0;bottom=0;right=0;align=left;spacingLeft=6;fontStyle=5;" parent="HNg9jCC4lnhHoj9bdT9w-6" vertex="1">
          <mxGeometry x="30" width="220" height="30" as="geometry">
            <mxRectangle width="220" height="30" as="alternateBounds" />
          </mxGeometry>
        </mxCell>
        <mxCell id="HNg9jCC4lnhHoj9bdT9w-9" value="" style="shape=partialRectangle;collapsible=0;dropTarget=0;pointerEvents=0;fillColor=none;points=[[0,0.5],[1,0.5]];portConstraint=eastwest;top=0;left=0;right=0;bottom=0;verticalAlign=top;" parent="HNg9jCC4lnhHoj9bdT9w-5" vertex="1">
          <mxGeometry y="60" width="250" height="120" as="geometry" />
        </mxCell>
        <mxCell id="HNg9jCC4lnhHoj9bdT9w-10" value="&#xa;&#xa;&#xa;&#xa;FK" style="shape=partialRectangle;overflow=hidden;connectable=0;fillColor=none;top=0;left=0;bottom=0;right=0;verticalAlign=top;" parent="HNg9jCC4lnhHoj9bdT9w-9" vertex="1">
          <mxGeometry width="30" height="120" as="geometry">
            <mxRectangle width="30" height="120" as="alternateBounds" />
          </mxGeometry>
        </mxCell>
        <mxCell id="HNg9jCC4lnhHoj9bdT9w-11" value="payment_num&#xa;name&#xa;expiration_date&#xa;cvv&#xa;id_payment" style="shape=partialRectangle;overflow=hidden;connectable=0;fillColor=none;top=0;left=0;bottom=0;right=0;align=left;spacingLeft=6;verticalAlign=top;" parent="HNg9jCC4lnhHoj9bdT9w-9" vertex="1">
          <mxGeometry x="30" width="220" height="120" as="geometry">
            <mxRectangle width="220" height="120" as="alternateBounds" />
          </mxGeometry>
        </mxCell>
        <mxCell id="RLh3w4Q663tFXLtOsCYR-6" style="edgeStyle=orthogonalEdgeStyle;rounded=0;orthogonalLoop=1;jettySize=auto;html=1;exitX=0.5;exitY=0;exitDx=0;exitDy=0;endArrow=none;endFill=0;" edge="1" parent="1" source="HNg9jCC4lnhHoj9bdT9w-12">
          <mxGeometry relative="1" as="geometry">
            <mxPoint x="690" y="410" as="targetPoint" />
          </mxGeometry>
        </mxCell>
        <mxCell id="HNg9jCC4lnhHoj9bdT9w-12" value="TRANSFERENCE" style="shape=table;startSize=30;container=1;collapsible=1;childLayout=tableLayout;fixedRows=1;rowLines=0;fontStyle=1;align=center;resizeLast=1;fillColor=#999999;" parent="1" vertex="1">
          <mxGeometry x="720" y="470" width="250" height="180" as="geometry">
            <mxRectangle x="450" y="332.5" width="115" height="30" as="alternateBounds" />
          </mxGeometry>
        </mxCell>
        <mxCell id="HNg9jCC4lnhHoj9bdT9w-13" value="" style="shape=partialRectangle;collapsible=0;dropTarget=0;pointerEvents=0;fillColor=none;points=[[0,0.5],[1,0.5]];portConstraint=eastwest;top=0;left=0;right=0;bottom=1;" parent="HNg9jCC4lnhHoj9bdT9w-12" vertex="1">
          <mxGeometry y="30" width="250" height="30" as="geometry" />
        </mxCell>
        <mxCell id="HNg9jCC4lnhHoj9bdT9w-14" value="PK" style="shape=partialRectangle;overflow=hidden;connectable=0;fillColor=none;top=0;left=0;bottom=0;right=0;fontStyle=1;" parent="HNg9jCC4lnhHoj9bdT9w-13" vertex="1">
          <mxGeometry width="30" height="30" as="geometry">
            <mxRectangle width="30" height="30" as="alternateBounds" />
          </mxGeometry>
        </mxCell>
        <mxCell id="HNg9jCC4lnhHoj9bdT9w-15" value="id_transference" style="shape=partialRectangle;overflow=hidden;connectable=0;fillColor=none;top=0;left=0;bottom=0;right=0;align=left;spacingLeft=6;fontStyle=5;" parent="HNg9jCC4lnhHoj9bdT9w-13" vertex="1">
          <mxGeometry x="30" width="220" height="30" as="geometry">
            <mxRectangle width="220" height="30" as="alternateBounds" />
          </mxGeometry>
        </mxCell>
        <mxCell id="HNg9jCC4lnhHoj9bdT9w-16" value="" style="shape=partialRectangle;collapsible=0;dropTarget=0;pointerEvents=0;fillColor=none;points=[[0,0.5],[1,0.5]];portConstraint=eastwest;top=0;left=0;right=0;bottom=0;verticalAlign=top;" parent="HNg9jCC4lnhHoj9bdT9w-12" vertex="1">
          <mxGeometry y="60" width="250" height="120" as="geometry" />
        </mxCell>
        <mxCell id="HNg9jCC4lnhHoj9bdT9w-17" value="&#xa;&#xa;FK" style="shape=partialRectangle;overflow=hidden;connectable=0;fillColor=none;top=0;left=0;bottom=0;right=0;verticalAlign=top;" parent="HNg9jCC4lnhHoj9bdT9w-16" vertex="1">
          <mxGeometry width="30" height="120" as="geometry">
            <mxRectangle width="30" height="120" as="alternateBounds" />
          </mxGeometry>
        </mxCell>
        <mxCell id="HNg9jCC4lnhHoj9bdT9w-18" value="bank_name&#xa;transfer_number&#xa;id_payment" style="shape=partialRectangle;overflow=hidden;connectable=0;fillColor=none;top=0;left=0;bottom=0;right=0;align=left;spacingLeft=6;verticalAlign=top;" parent="HNg9jCC4lnhHoj9bdT9w-16" vertex="1">
          <mxGeometry x="30" width="220" height="120" as="geometry">
            <mxRectangle width="220" height="120" as="alternateBounds" />
          </mxGeometry>
        </mxCell>
        <mxCell id="RLh3w4Q663tFXLtOsCYR-8" style="edgeStyle=orthogonalEdgeStyle;rounded=0;orthogonalLoop=1;jettySize=auto;html=1;endArrow=none;endFill=0;" edge="1" parent="1" source="_grspFD3yTu_OkrnNVzH-1" target="DCqz6rwjNSf6AzqSDJ03-19">
          <mxGeometry relative="1" as="geometry">
            <Array as="points">
              <mxPoint x="95" y="210" />
              <mxPoint x="95" y="210" />
            </Array>
          </mxGeometry>
        </mxCell>
        <mxCell id="_grspFD3yTu_OkrnNVzH-1" value="RESERVExSERVICE" style="shape=table;startSize=30;container=1;collapsible=1;childLayout=tableLayout;fixedRows=1;rowLines=0;fontStyle=1;align=center;resizeLast=1;fillColor=#999999;" parent="1" vertex="1">
          <mxGeometry x="-30" y="290" width="250" height="130" as="geometry">
            <mxRectangle x="100" y="340" width="140" height="30" as="alternateBounds" />
          </mxGeometry>
        </mxCell>
        <mxCell id="_grspFD3yTu_OkrnNVzH-2" value="" style="shape=partialRectangle;collapsible=0;dropTarget=0;pointerEvents=0;fillColor=none;points=[[0,0.5],[1,0.5]];portConstraint=eastwest;top=0;left=0;right=0;bottom=1;" parent="_grspFD3yTu_OkrnNVzH-1" vertex="1">
          <mxGeometry y="30" width="250" height="30" as="geometry" />
        </mxCell>
        <mxCell id="_grspFD3yTu_OkrnNVzH-3" value="PK" style="shape=partialRectangle;overflow=hidden;connectable=0;fillColor=none;top=0;left=0;bottom=0;right=0;fontStyle=1;" parent="_grspFD3yTu_OkrnNVzH-2" vertex="1">
          <mxGeometry width="30" height="30" as="geometry">
            <mxRectangle width="30" height="30" as="alternateBounds" />
          </mxGeometry>
        </mxCell>
        <mxCell id="_grspFD3yTu_OkrnNVzH-4" value="reserve_service_id" style="shape=partialRectangle;overflow=hidden;connectable=0;fillColor=none;top=0;left=0;bottom=0;right=0;align=left;spacingLeft=6;fontStyle=5;" parent="_grspFD3yTu_OkrnNVzH-2" vertex="1">
          <mxGeometry x="30" width="220" height="30" as="geometry">
            <mxRectangle width="220" height="30" as="alternateBounds" />
          </mxGeometry>
        </mxCell>
        <mxCell id="_grspFD3yTu_OkrnNVzH-5" value="" style="shape=partialRectangle;collapsible=0;dropTarget=0;pointerEvents=0;fillColor=none;points=[[0,0.5],[1,0.5]];portConstraint=eastwest;top=0;left=0;right=0;bottom=0;" parent="_grspFD3yTu_OkrnNVzH-1" vertex="1">
          <mxGeometry y="60" width="250" height="70" as="geometry" />
        </mxCell>
        <mxCell id="_grspFD3yTu_OkrnNVzH-6" value="FK&#xa;FK" style="shape=partialRectangle;overflow=hidden;connectable=0;fillColor=none;top=0;left=0;bottom=0;right=0;verticalAlign=top;" parent="_grspFD3yTu_OkrnNVzH-5" vertex="1">
          <mxGeometry width="30" height="70" as="geometry">
            <mxRectangle width="30" height="70" as="alternateBounds" />
          </mxGeometry>
        </mxCell>
        <mxCell id="_grspFD3yTu_OkrnNVzH-7" value="reserve_id&#xa;service_id" style="shape=partialRectangle;overflow=hidden;connectable=0;fillColor=none;top=0;left=0;bottom=0;right=0;align=left;spacingLeft=6;verticalAlign=top;" parent="_grspFD3yTu_OkrnNVzH-5" vertex="1">
          <mxGeometry x="30" width="220" height="70" as="geometry">
            <mxRectangle width="220" height="70" as="alternateBounds" />
          </mxGeometry>
        </mxCell>
        <mxCell id="RLh3w4Q663tFXLtOsCYR-2" style="edgeStyle=orthogonalEdgeStyle;rounded=0;orthogonalLoop=1;jettySize=auto;html=1;entryX=0.5;entryY=0;entryDx=0;entryDy=0;endArrow=none;endFill=0;" edge="1" parent="1" source="y83t3_RC7K6JL3BlZnbY-40" target="6aJy4sqh1_ycQQzWGgB1-12">
          <mxGeometry relative="1" as="geometry" />
        </mxCell>
        <mxCell id="RLh3w4Q663tFXLtOsCYR-4" style="edgeStyle=orthogonalEdgeStyle;rounded=0;orthogonalLoop=1;jettySize=auto;html=1;entryX=0;entryY=0.5;entryDx=0;entryDy=0;endArrow=none;endFill=0;" edge="1" parent="1" source="DCqz6rwjNSf6AzqSDJ03-19" target="DCqz6rwjNSf6AzqSDJ03-48">
          <mxGeometry relative="1" as="geometry">
            <Array as="points">
              <mxPoint x="230" y="108" />
              <mxPoint x="230" y="108" />
            </Array>
          </mxGeometry>
        </mxCell>
        <mxCell id="RLh3w4Q663tFXLtOsCYR-5" style="edgeStyle=orthogonalEdgeStyle;rounded=0;orthogonalLoop=1;jettySize=auto;html=1;exitX=0.5;exitY=0;exitDx=0;exitDy=0;entryX=0.518;entryY=1.071;entryDx=0;entryDy=0;entryPerimeter=0;endArrow=none;endFill=0;" edge="1" parent="1" source="HNg9jCC4lnhHoj9bdT9w-5" target="DCqz6rwjNSf6AzqSDJ03-5">
          <mxGeometry relative="1" as="geometry">
            <Array as="points">
              <mxPoint x="535" y="440" />
              <mxPoint x="690" y="440" />
            </Array>
          </mxGeometry>
        </mxCell>
        <mxCell id="RLh3w4Q663tFXLtOsCYR-7" style="edgeStyle=orthogonalEdgeStyle;rounded=0;orthogonalLoop=1;jettySize=auto;html=1;entryX=0.01;entryY=0.583;entryDx=0;entryDy=0;entryPerimeter=0;endArrow=none;endFill=0;" edge="1" parent="1" source="DCqz6rwjNSf6AzqSDJ03-55" target="DCqz6rwjNSf6AzqSDJ03-19">
          <mxGeometry relative="1" as="geometry" />
        </mxCell>
        <mxCell id="RLh3w4Q663tFXLtOsCYR-9" style="edgeStyle=orthogonalEdgeStyle;rounded=0;orthogonalLoop=1;jettySize=auto;html=1;entryX=0.501;entryY=1.004;entryDx=0;entryDy=0;entryPerimeter=0;endArrow=none;endFill=0;" edge="1" parent="1" source="DCqz6rwjNSf6AzqSDJ03-29" target="_grspFD3yTu_OkrnNVzH-5">
          <mxGeometry relative="1" as="geometry" />
        </mxCell>
      </root>
    </mxGraphModel>
  </diagram>
</mxfile>
